<svg xmlns="http://www.w3.org/2000/svg" xmlns:xlink="http://www.w3.org/1999/xlink" width="150" height="48" viewBox="0 0 150 48">
  <defs>
    <filter id="Path_5" x="3.577" y="10.94" width="39.12" height="30.214" filterUnits="userSpaceOnUse">
      <feOffset dy="1" input="SourceAlpha"/>
      <feGaussianBlur stdDeviation="1" result="blur"/>
      <feFlood flood-opacity="0.071"/>
      <feComposite operator="in" in2="blur"/>
      <feComposite in="SourceGraphic"/>
    </filter>
  </defs>
  <g id="Group_832" data-name="Group 832" transform="translate(-140 -46.207)">
    <text id="WeeBuy" transform="translate(197 71.207)" font-size="24" font-family="AvenirLTStd-Black, Avenir LT Std" font-weight="800"><tspan x="0" y="0">WeeBuy</tspan></text>
    <text id="Let_s_Buy_Together" data-name="Let’s Buy Together" transform="translate(201 87.207)" font-size="8" font-family="AvenirLTStd-Medium, Avenir LT Std" font-weight="500"><tspan x="0" y="0">Let’s Buy Together</tspan></text>
    <circle id="Ellipse_1" data-name="Ellipse 1" cx="24" cy="24" r="24" transform="translate(140 46.207)" fill="#0048cd"/>
    <g id="Group_831" data-name="Group 831" transform="translate(146.577 53.575)">
      <path id="Path_2" data-name="Path 2" d="M139.695,77.674a3.756,3.756,0,1,0-7.512,0V77.8c-.025.638.075,3.606,3.744,8.876V86.7l.012-.012a.012.012,0,0,0,.012.012v-.025C140.133,80.7,139.695,77.674,139.695,77.674Zm-3.756,2.241a1.878,1.878,0,1,1,1.332-.554A1.89,1.89,0,0,1,135.939,79.915Z" transform="translate(-121.244 -68.346)" fill="#fff"/>
      <path id="Path_3" data-name="Path 3" d="M223.095,77.674a3.756,3.756,0,1,0-7.512,0V77.8c-.025.638.075,3.606,3.744,8.876V86.7l.012-.012a.012.012,0,0,0,.012.012v-.025C223.533,80.7,223.095,77.674,223.095,77.674Zm-3.744,2.241a1.878,1.878,0,1,1,1.332-.554,1.89,1.89,0,0,1-1.332.554Z" transform="translate(-194.202 -68.346)" fill="#fff"/>
      <path id="Path_4" data-name="Path 4" d="M135.783,256.979a2.341,2.341,0,1,1-2.341-2.279,2.317,2.317,0,0,1,2.341,2.279Z" transform="translate(-120.299 -226.504)" fill="#fff"/>
      <g transform="matrix(1, 0, 0, 1, -6.58, -7.37)" filter="url(#Path_5)">
        <path id="Path_5-2" data-name="Path 5" d="M76.325,83.014c-2.066-.063-1.627,2.767-1.627,2.767A11.225,11.225,0,0,1,64.13,95.147c-10-.625-10.5-10.117-10.5-10.117V78.119A4.841,4.841,0,0,0,49.745,74H46.052c-1,0-1.252,1.615-1.252,1.615.375,1.5,1.252,1.627,1.252,1.627h3.13c1.189.125,1.252,1.565,1.252,1.565v7.3c.251,4.845,3.355,8.113,5.947,10.028a3.315,3.315,0,0,1,1.578-.4,3.237,3.237,0,0,1,3.18,2.479h6.25A3.282,3.282,0,0,1,72,96.06c2.441-2.028,5.5-5.434,5.9-10.028C78.165,82.8,76.325,83.014,76.325,83.014Z" transform="translate(-38.22 -61.06)" fill="#fff"/>
      </g>
      <path id="Path_6" data-name="Path 6" d="M236.583,256.979a2.341,2.341,0,1,1-2.341-2.279,2.317,2.317,0,0,1,2.341,2.279Z" transform="translate(-208.479 -226.504)" fill="#fff"/>
      <text id="TM" transform="translate(27.423 3.632)" fill="#fff" font-size="4" font-family="Calibri"><tspan x="0" y="0">TM</tspan></text>
    </g>
  </g>
</svg>
